<svg width="24" height="24" viewBox="0 0 24 24" fill="none" xmlns="http://www.w3.org/2000/svg">
  <path d="M22.54 6.42C22.42 5.94 22.18 5.51 21.84 5.17C21.5 4.83 21.07 4.59 20.59 4.47C18.88 4 12 4 12 4C12 4 5.12 4 3.41 4.47C2.93 4.59 2.5 4.83 2.16 5.17C1.82 5.51 1.58 5.94 1.46 6.42C1 8.13 1 11.69 1 11.69C1 11.69 1 15.25 1.46 16.96C1.58 17.44 1.82 17.87 2.16 18.21C2.5 18.55 2.93 18.79 3.41 18.91C5.12 19.38 12 19.38 12 19.38C12 19.38 18.88 19.38 20.59 18.91C21.07 18.79 21.5 18.55 21.84 18.21C22.18 17.87 22.42 17.44 22.54 16.96C23 15.25 23 11.69 23 11.69C23 11.69 23 8.13 22.54 6.42Z" stroke="currentColor" stroke-width="2" stroke-linecap="round" stroke-linejoin="round"/>
  <path d="M9.75 15.02V8.36001L15.5 11.69L9.75 15.02Z" stroke="currentColor" stroke-width="2" stroke-linecap="round" stroke-linejoin="round"/>
</svg>
