<svg width="600" height="400" viewBox="0 0 600 400" fill="none" xmlns="http://www.w3.org/2000/svg">
  <!-- Background Card -->
  <rect x="50" y="50" width="500" height="300" rx="12" fill="white" stroke="#E5E5E5" stroke-width="2"/>
  <rect x="50" y="50" width="500" height="40" rx="12" fill="#FAFAFA" stroke="#E5E5E5" stroke-width="2"/>
  
  <!-- Sidebar -->
  <rect x="50" y="90" width="120" height="260" rx="0" fill="#FAFAFA" stroke="#E5E5E5" stroke-width="1"/>
  <rect x="70" y="110" width="80" height="8" rx="4" fill="#E5E5E5"/>
  <rect x="70" y="130" width="60" height="8" rx="4" fill="#E5E5E5"/>
  <rect x="70" y="150" width="70" height="8" rx="4" fill="#E5E5E5"/>
  
  <!-- Content Area -->
  <rect x="190" y="110" width="340" height="100" rx="8" fill="#EFF6FF" stroke="#DBEAFE" stroke-width="1"/>
  <rect x="210" y="130" width="100" height="12" rx="6" fill="#60A5FA"/>
  <rect x="210" y="155" width="200" height="8" rx="4" fill="#BFDBFE"/>
  <rect x="210" y="170" width="150" height="8" rx="4" fill="#BFDBFE"/>
  
  <!-- Stats -->
  <rect x="190" y="230" width="100" height="100" rx="8" fill="white" stroke="#E5E5E5" stroke-width="1"/>
  <rect x="210" y="250" width="30" height="30" rx="15" fill="#3B82F6" fill-opacity="0.1"/>
  <rect x="210" y="290" width="60" height="8" rx="4" fill="#E5E5E5"/>
  
  <rect x="310" y="230" width="100" height="100" rx="8" fill="white" stroke="#E5E5E5" stroke-width="1"/>
  <rect x="330" y="250" width="30" height="30" rx="15" fill="#10B981" fill-opacity="0.1"/>
  <rect x="330" y="290" width="60" height="8" rx="4" fill="#E5E5E5"/>
  
  <rect x="430" y="230" width="100" height="100" rx="8" fill="white" stroke="#E5E5E5" stroke-width="1"/>
  <rect x="450" y="250" width="30" height="30" rx="15" fill="#F59E0B" fill-opacity="0.1"/>
  <rect x="450" y="290" width="60" height="8" rx="4" fill="#E5E5E5"/>
</svg>
